<svg xmlns="http://www.w3.org/2000/svg" fill="none" viewBox="0 0 18 14" height="14" width="18">
<path fill="#666666" d="M3.06315 0.375C1.60587 0.375 0.458984 1.58962 0.458984 3.04471C0.458984 3.08137 0.462198 3.1176 0.468434 3.15304C0.462223 3.1884 0.458984 3.22478 0.458984 3.26191V11.1032C0.458984 12.5366 1.63056 13.6885 3.06315 13.6885H14.9381C16.3707 13.6885 17.5423 12.5366 17.5423 11.1032V3.26191C17.5423 3.22478 17.5391 3.1884 17.5329 3.15304C17.5391 3.1176 17.5423 3.08137 17.5423 3.04471C17.5423 1.58962 16.3954 0.375 14.9381 0.375H3.06315ZM16.2923 4.19164L10.3886 7.99997C9.54047 8.54763 8.46083 8.54763 7.61266 7.99997L1.70898 4.19164V11.1032C1.70898 11.835 2.30961 12.4385 3.06315 12.4385H14.9381C15.6917 12.4385 16.2923 11.835 16.2923 11.1032V4.19164ZM8.29049 6.94971L1.74288 2.72599C1.88235 2.08391 2.4342 1.625 3.06315 1.625H14.9381C15.5671 1.625 16.119 2.08391 16.2584 2.72599L9.71058 6.94986C9.27517 7.231 8.7259 7.23085 8.29049 6.94971Z" clip-rule="evenodd" fill-rule="evenodd"></path>
</svg>
