<svg width="24" height="24" viewBox="0 0 24 24" fill="none" xmlns="http://www.w3.org/2000/svg">
<circle cx="12" cy="12" r="10" fill="white"/>
<path fill-rule="evenodd" clip-rule="evenodd" d="M10.7962 2.04671C10.1325 2.12981 9.01746 2.41381 8.42203 2.65142C5.12712 3.96622 2.90691 6.62213 2.15485 10.1485C1.94638 11.126 1.94876 12.9929 2.15983 13.9906C2.58753 16.0131 3.4801 17.7074 4.85248 19.1019C5.90016 20.1665 6.95289 20.877 8.25896 21.4011C8.87529 21.6485 10.0775 22 10.3069 22C10.3829 22 10.398 21.4206 10.398 18.4959V14.9918H9.13693H7.87586V13.5234V12.055H9.13693H10.398V10.684C10.398 9.69947 10.4275 9.16778 10.5024 8.79841C10.8856 6.90994 12.2331 5.883 14.3139 5.89348C15.0174 5.89702 16.3377 6.01929 16.4544 6.09171C16.4819 6.10873 16.5042 6.67233 16.5042 7.34411V8.56561L15.5916 8.59932C13.8596 8.66326 13.5839 8.99271 13.5839 10.9977V12.055H14.985H16.3863L16.3488 12.2719C16.3283 12.3912 16.2322 13.0145 16.1353 13.6569C16.0385 14.2993 15.9484 14.8625 15.9352 14.9084C15.917 14.971 15.6212 14.9918 14.7474 14.9918H13.5839V18.4959C13.5839 21.4206 13.5989 22 13.6749 22C13.8911 22 15.0878 21.6557 15.6547 21.4303C18.3934 20.3417 20.5158 18.1094 21.4785 15.3047C22.3374 12.8026 22.1263 9.87227 20.9121 7.44076C20.5351 6.68587 19.7763 5.66128 19.0626 4.94364C17.6243 3.49721 15.933 2.58748 13.9157 2.17533C13.1151 2.01174 11.5807 1.94846 10.7962 2.04671Z" fill="#1877F2"/>
</svg>
